<svg xmlns="http://www.w3.org/2000/svg" xmlns:xlink="http://www.w3.org/1999/xlink" width="1080" zoomAndPan="magnify" viewBox="0 0 810 374.999991" height="500" preserveAspectRatio="xMidYMid meet" version="1.0"><path fill="#005450" d="M 179.828125 52.011719 C 175.027344 54.730469 173.257812 61.996094 176.289062 66.417969 C 178.753906 70.082031 180.777344 71.15625 185.261719 71.15625 C 188.359375 71.15625 189.6875 70.84375 191.015625 69.832031 C 194.109375 67.554688 195.246094 65.40625 195.5625 61.554688 C 195.753906 58.457031 195.5625 57.507812 194.300781 55.675781 C 190.886719 50.683594 184.757812 49.105469 179.828125 52.011719 Z M 179.828125 52.011719 " fill-opacity="1" fill-rule="nonzero"/><path fill="#005450" d="M 519.21875 53.339844 C 518.015625 54.097656 516.5 55.738281 515.804688 56.941406 C 514.542969 59.089844 514.476562 60.164062 514.289062 95.167969 C 514.035156 144.269531 514.542969 149.953125 520.164062 161.519531 C 525.21875 171.945312 533.878906 179.464844 544.871094 183.066406 C 550.117188 184.773438 551.128906 184.898438 559.972656 184.835938 C 568.441406 184.835938 570.019531 184.644531 574.507812 183.128906 C 582.976562 180.347656 592.453125 173.777344 594.664062 169.226562 C 595.234375 168.027344 595.675781 165.816406 595.675781 164.363281 C 595.675781 162.214844 595.296875 161.328125 593.527344 159.558594 C 591.632812 157.664062 591 157.410156 588.21875 157.410156 C 585.4375 157.410156 584.429688 157.789062 580.699219 160.378906 C 574.761719 164.425781 570.84375 166.132812 565.28125 166.953125 C 550.558594 169.101562 539.4375 161.960938 534.636719 147.300781 C 533.6875 144.332031 533.5 140.792969 533.246094 122.847656 L 532.992188 101.867188 L 555.675781 101.679688 C 576.847656 101.488281 578.425781 101.425781 580.320312 100.226562 C 584.871094 97.507812 585.691406 90.242188 581.835938 86.449219 L 579.878906 84.425781 L 556.625 84.113281 L 533.433594 83.796875 L 533.117188 70.84375 C 532.867188 59.722656 532.613281 57.574219 531.664062 56.117188 C 528.949219 51.949219 523.136719 50.621094 519.21875 53.339844 Z M 519.21875 53.339844 " fill-opacity="1" fill-rule="nonzero"/><path fill="#005450" d="M 54.460938 83.605469 C 52.757812 83.921875 48.710938 85.4375 45.554688 86.957031 C 37.71875 90.746094 32.03125 96.308594 28.429688 103.761719 C 26.976562 106.671875 25.523438 110.589844 25.144531 112.421875 C 24.699219 114.570312 24.449219 126.953125 24.449219 146.542969 C 24.449219 176.304688 24.511719 177.378906 25.710938 179.402344 C 28.238281 183.507812 34.746094 185.023438 38.726562 182.371094 C 42.519531 179.90625 42.457031 180.855469 42.773438 146.984375 L 43.089844 116.023438 L 44.730469 112.484375 C 50.796875 99.59375 67.921875 96.6875 77.210938 106.984375 C 78.539062 108.375 80.179688 110.839844 80.9375 112.484375 C 82.203125 115.328125 82.265625 116.402344 82.582031 146.667969 C 82.960938 181.863281 82.707031 180.160156 87.761719 182.75 C 92.375 185.085938 97.429688 183.445312 99.769531 178.832031 C 100.78125 176.875 100.90625 174.03125 100.90625 147.617188 C 100.90625 130.175781 101.222656 117.414062 101.601562 115.707031 C 102.484375 111.789062 105.960938 106.734375 109.4375 104.332031 C 117.019531 99.085938 126.246094 99.402344 133.257812 105.152344 C 137.050781 108.3125 139.386719 112.421875 140.082031 117.414062 C 140.335938 119.433594 140.589844 133.652344 140.589844 149.070312 C 140.652344 180.855469 140.460938 179.84375 145.769531 182.558594 C 150.445312 184.960938 155.121094 183.699219 157.777344 179.335938 C 158.976562 177.378906 159.039062 175.925781 159.039062 146.289062 C 159.039062 115.644531 159.039062 115.136719 157.585938 110.144531 C 150.003906 84.113281 117.460938 74 98.125 91.757812 C 96.355469 93.402344 94.207031 95.863281 93.324219 97.316406 C 92.4375 98.707031 91.617188 99.847656 91.429688 99.847656 C 91.238281 99.847656 90.101562 98.265625 88.902344 96.308594 C 82.519531 86.132812 68.554688 80.953125 54.460938 83.605469 Z M 54.460938 83.605469 " fill-opacity="1" fill-rule="nonzero"/><path fill="#005450" d="M 324.152344 83.480469 C 316.378906 84.871094 307.976562 88.722656 301.214844 93.90625 C 287.757812 104.269531 280.425781 121.898438 282.257812 139.527344 C 284.597656 161.960938 299.195312 178.894531 320.675781 184.011719 C 325.289062 185.152344 327.4375 185.277344 334.074219 185.023438 C 345.195312 184.582031 353.789062 181.675781 361.6875 175.671875 C 363.519531 174.34375 365.164062 173.207031 365.351562 173.207031 C 365.542969 173.207031 365.667969 174.09375 365.667969 175.105469 C 365.667969 183.128906 376.09375 186.730469 381.84375 180.726562 L 383.675781 178.832031 L 383.675781 151.851562 C 383.675781 121.203125 383.675781 121.015625 378.621094 110.902344 C 375.082031 103.828125 370.21875 97.824219 364.59375 93.589844 C 359.601562 89.796875 351.828125 85.882812 346.394531 84.425781 C 341.847656 83.226562 328.765625 82.660156 324.152344 83.480469 Z M 339.507812 101.234375 C 351.578125 103.382812 362.507812 113.808594 365.351562 125.878906 C 369.082031 141.867188 361.5625 157.410156 346.585938 164.363281 C 334.136719 170.175781 319.917969 167.457031 309.808594 157.285156 C 302.859375 150.332031 299.761719 143.128906 299.824219 133.96875 C 299.886719 123.226562 304.691406 113.875 313.601562 107.113281 C 320.992188 101.550781 330.03125 99.53125 339.507812 101.234375 Z M 339.507812 101.234375 " fill-opacity="1" fill-rule="nonzero"/><path fill="#005450" d="M 441.179688 83.289062 C 437.199219 83.859375 430.308594 86.195312 426.328125 88.34375 C 417.421875 93.148438 410.910156 99.972656 406.425781 109.070312 C 401.433594 119.179688 401.433594 118.800781 401.242188 150.144531 C 401.054688 177.253906 401.054688 178.011719 402.316406 180.03125 C 403.960938 182.75 408.574219 184.835938 411.605469 184.394531 C 414.511719 183.886719 416.597656 182.433594 418.113281 179.96875 C 419.316406 178.074219 419.378906 176.621094 419.378906 153.304688 C 419.378906 125.878906 419.695312 122.910156 423.296875 116.210938 C 430.5 102.625 447.878906 96.75 461.273438 103.320312 C 465.886719 105.53125 471.320312 111.03125 473.65625 115.832031 C 477.195312 122.972656 477.511719 126.070312 477.511719 153.304688 C 477.511719 176.875 477.574219 178.011719 478.777344 180.03125 C 480.167969 182.308594 484.335938 184.519531 487.179688 184.582031 C 490.023438 184.582031 493.121094 182.75 494.699219 180.222656 C 496.152344 177.949219 496.152344 177.882812 496.152344 151.722656 C 496.089844 129.734375 495.964844 124.742188 495.078125 120.949219 C 490.59375 101.425781 476.566406 87.269531 458.050781 83.734375 C 453.691406 82.910156 445.539062 82.722656 441.179688 83.289062 Z M 441.179688 83.289062 " fill-opacity="1" fill-rule="nonzero"/><path fill="#005450" d="M 742.273438 83.734375 C 731.214844 86.070312 723.316406 91.316406 719.335938 98.960938 C 717.441406 102.5 717.316406 103.132812 717.316406 109.386719 C 717.316406 115.644531 717.441406 116.339844 719.398438 120.253906 C 723.570312 128.785156 731.59375 134.03125 749.414062 139.972656 C 760.15625 143.574219 764.515625 145.53125 767.675781 148.4375 C 772.480469 152.796875 772.289062 159.179688 767.171875 163.667969 C 763.695312 166.699219 759.839844 167.835938 753.015625 167.773438 C 745.054688 167.710938 739.808594 165.941406 733.363281 161.074219 C 725.972656 155.515625 720.726562 154.441406 717.378906 157.851562 C 713.585938 161.644531 713.964844 166.699219 718.453125 171.882812 C 725.972656 180.539062 738.230469 185.277344 753.332031 185.277344 C 765.402344 185.339844 773.996094 182.371094 781.199219 175.609375 C 787.960938 169.289062 790.867188 161.011719 789.601562 151.851562 C 788.59375 144.835938 785.054688 139.464844 778.355469 135.042969 C 772.859375 131.378906 768.183594 129.292969 755.480469 124.867188 C 743.917969 120.886719 740.820312 119.308594 737.914062 116.023438 C 736.207031 114.0625 735.957031 113.304688 735.957031 110.335938 C 735.957031 107.429688 736.273438 106.605469 737.851562 104.710938 C 740.757812 101.425781 744.800781 100.289062 752.320312 100.667969 C 759.714844 101.109375 764.136719 102.625 769.257812 106.605469 C 773.742188 110.144531 776.398438 111.28125 779.808594 111.28125 C 784.421875 111.28125 787.136719 108.125 787.136719 102.753906 C 787.136719 98.960938 786.0625 97.003906 781.894531 93.210938 C 777.851562 89.484375 772.164062 86.324219 766.414062 84.617188 C 760.851562 82.972656 748.023438 82.53125 742.273438 83.734375 Z M 742.273438 83.734375 " fill-opacity="1" fill-rule="nonzero"/><path fill="#005450" d="M 180.585938 85.25 C 179.386719 85.882812 177.871094 87.398438 177.238281 88.597656 C 176.164062 90.621094 176.101562 93.273438 176.101562 133.714844 C 176.101562 174.34375 176.164062 176.808594 177.300781 178.894531 C 180.714844 185.402344 190.003906 185.339844 193.289062 178.832031 C 194.363281 176.875 194.425781 173.398438 194.425781 133.839844 C 194.425781 86.324219 194.550781 87.839844 190.382812 85.3125 C 187.855469 83.796875 183.367188 83.796875 180.585938 85.25 Z M 180.585938 85.25 " fill-opacity="1" fill-rule="nonzero"/><path fill="#005450" d="M 251.484375 85.058594 C 231.769531 88.660156 219.195312 100.035156 213.886719 119.179688 C 212.625 123.921875 212.5 125.753906 212.308594 150.777344 C 212.054688 176.683594 212.117188 177.378906 213.382812 179.402344 C 215.910156 183.507812 222.417969 185.023438 226.398438 182.371094 C 230.128906 179.96875 230.066406 180.097656 230.507812 153.933594 C 230.949219 127.394531 231.140625 125.816406 235.183594 118.550781 C 236.382812 116.402344 238.847656 113.242188 240.742188 111.472656 C 246.558594 105.976562 252.8125 103.511719 263.871094 102.5 C 270.441406 101.929688 272.402344 100.921875 274.171875 97.316406 C 276.445312 92.894531 274.929688 87.207031 270.882812 85.25 C 268.167969 83.859375 258.4375 83.796875 251.484375 85.058594 Z M 251.484375 85.058594 " fill-opacity="1" fill-rule="nonzero"/><path fill="#005450" d="M 611.664062 85.4375 C 607.617188 88.03125 607.617188 88.09375 607.808594 118.421875 C 608.0625 148.058594 608.125 148.3125 611.914062 157.09375 C 614.570312 163.097656 617.601562 167.519531 622.46875 172.261719 C 627.710938 177.441406 633.210938 180.789062 640.222656 183.128906 C 644.773438 184.707031 646.164062 184.835938 654.441406 184.835938 C 663.097656 184.835938 663.921875 184.773438 669.164062 182.875 C 676.746094 180.222656 680.980469 177.503906 686.605469 171.945312 C 694 164.550781 698.988281 154.503906 700.570312 143.761719 C 700.886719 141.359375 701.203125 128.660156 701.203125 115.515625 C 701.203125 89.355469 701.136719 88.914062 697.472656 85.816406 C 693.492188 82.46875 686.289062 83.984375 683.699219 88.660156 C 682.6875 90.558594 682.496094 93.335938 682.183594 117.601562 C 681.929688 136.9375 681.613281 145.152344 681.042969 146.984375 C 678.578125 154.695312 672.640625 161.769531 666.132812 164.742188 C 652.355469 171.058594 636.6875 165.371094 629.734375 151.535156 C 626.324219 144.835938 626.007812 141.867188 626.007812 115.199219 C 626.007812 88.34375 625.945312 87.714844 621.960938 85.3125 C 619.308594 83.667969 614.316406 83.734375 611.664062 85.4375 Z M 611.664062 85.4375 " fill-opacity="1" fill-rule="nonzero"/><path fill="#005450" d="M 17.496094 223.445312 C 17.496094 224.265625 60.90625 224.390625 404.214844 224.390625 C 747.519531 224.390625 790.929688 224.265625 790.929688 223.445312 C 790.929688 222.621094 747.519531 222.496094 404.214844 222.496094 C 60.90625 222.496094 17.496094 222.621094 17.496094 223.445312 Z M 17.496094 223.445312 " fill-opacity="1" fill-rule="nonzero"/><path fill="#005450" d="M 197.394531 285.558594 C 196.449219 286.632812 196.320312 289.222656 196.320312 313.359375 C 196.320312 339.207031 196.386719 340.089844 197.585938 341.289062 C 199.164062 342.871094 200.808594 342.871094 202.703125 341.355469 C 204.15625 340.152344 204.21875 339.835938 204.410156 328.714844 L 204.597656 317.277344 L 235.5 317.277344 L 235.5 328.527344 C 235.5 339.523438 235.5625 339.835938 236.953125 341.164062 C 238.46875 342.554688 240.300781 342.933594 241.566406 342.050781 C 243.585938 340.722656 243.714844 338.699219 243.714844 313.046875 C 243.714844 284.167969 243.777344 284.421875 239.605469 284.421875 C 235.878906 284.421875 235.5 285.621094 235.5 298.449219 L 235.5 309.695312 L 204.535156 309.695312 L 204.535156 298.765625 C 204.535156 286.191406 204.15625 284.863281 200.683594 284.546875 C 199.164062 284.421875 198.152344 284.738281 197.394531 285.558594 Z M 197.394531 285.558594 " fill-opacity="1" fill-rule="nonzero"/><path fill="#005450" d="M 279.226562 285.433594 L 277.835938 286.378906 L 277.835938 313.109375 C 277.835938 335.160156 277.960938 340.027344 278.71875 341.039062 C 279.605469 342.175781 280.679688 342.238281 297.675781 342.429688 L 315.75 342.617188 L 317.328125 341.039062 C 319.289062 339.078125 319.289062 338.449219 317.328125 336.550781 L 315.8125 334.972656 L 286.050781 334.972656 L 286.050781 316.648438 L 297.929688 316.648438 C 308.671875 316.648438 310 316.519531 310.882812 315.507812 C 312.273438 313.992188 312.210938 312.035156 310.820312 310.769531 C 309.808594 309.824219 307.914062 309.695312 297.867188 309.695312 L 286.050781 309.695312 L 286.050781 292.003906 L 315.8125 292.003906 L 317.328125 290.421875 C 319.222656 288.589844 319.289062 288.210938 317.582031 286.0625 L 316.316406 284.421875 L 298.433594 284.421875 C 283.332031 284.421875 280.425781 284.546875 279.226562 285.433594 Z M 279.226562 285.433594 " fill-opacity="1" fill-rule="nonzero"/><path fill="#005450" d="M 368.636719 285.8125 C 367.183594 287.265625 347.027344 334.464844 346.332031 338.003906 C 345.636719 341.542969 350.1875 344.070312 352.589844 341.417969 C 353.15625 340.847656 354.546875 338.066406 355.683594 335.289062 L 357.832031 330.234375 L 385.507812 330.234375 L 387.65625 335.289062 C 388.796875 338.066406 390.183594 340.847656 390.753906 341.417969 C 393.15625 344.070312 397.703125 341.542969 397.011719 338.003906 C 396.316406 334.464844 375.714844 286.632812 374.386719 285.496094 C 372.617188 284.042969 370.28125 284.167969 368.636719 285.8125 Z M 377.230469 309.445312 C 379.949219 316.140625 382.097656 321.890625 382.097656 322.269531 C 382.097656 322.777344 378.9375 322.964844 371.671875 322.964844 C 363.332031 322.964844 361.246094 322.777344 361.246094 322.082031 C 361.246094 321.640625 363.332031 316.140625 365.859375 309.949219 C 368.386719 303.757812 370.722656 298.070312 370.976562 297.4375 C 371.230469 296.742188 371.609375 296.488281 371.925781 296.804688 C 372.175781 297.121094 374.578125 302.808594 377.230469 309.445312 Z M 377.230469 309.445312 " fill-opacity="1" fill-rule="nonzero"/><path fill="#005450" d="M 428.984375 285.433594 L 427.59375 286.378906 L 427.59375 340.597656 L 428.984375 341.542969 C 430.183594 342.429688 433.027344 342.554688 447.183594 342.554688 C 465.757812 342.554688 466.769531 342.363281 466.769531 338.761719 C 466.769531 335.226562 465.507812 334.972656 449.898438 334.972656 L 435.871094 334.972656 L 435.679688 311.023438 C 435.492188 288.527344 435.429688 287.011719 434.292969 285.746094 C 432.839844 284.167969 430.941406 284.042969 428.984375 285.433594 Z M 428.984375 285.433594 " fill-opacity="1" fill-rule="nonzero"/><path fill="#005450" d="M 491.855469 285.558594 C 490.339844 287.199219 490.53125 289.855469 492.171875 290.992188 C 493.308594 291.8125 495.394531 292.003906 501.652344 292.003906 L 509.738281 292.003906 L 509.867188 316.457031 L 510.054688 340.910156 L 511.824219 341.921875 C 513.339844 342.746094 513.71875 342.746094 515.300781 341.921875 L 517.003906 340.910156 L 517.195312 316.457031 L 517.320312 292.003906 L 525.851562 292.003906 C 533.5625 292.003906 534.507812 291.878906 535.648438 290.738281 C 536.339844 290.042969 536.910156 289.160156 536.910156 288.78125 C 536.910156 287.832031 535.582031 285.433594 534.761719 284.925781 C 534.382812 284.671875 524.777344 284.421875 513.46875 284.421875 C 494.320312 284.421875 492.804688 284.484375 491.855469 285.558594 Z M 491.855469 285.558594 " fill-opacity="1" fill-rule="nonzero"/><path fill="#005450" d="M 567.621094 285.367188 C 566.734375 286.316406 566.609375 289.285156 566.609375 313.234375 C 566.609375 339.207031 566.671875 340.089844 567.871094 341.289062 C 569.453125 342.871094 571.09375 342.871094 572.992188 341.355469 C 574.445312 340.152344 574.507812 339.835938 574.699219 328.714844 L 574.886719 317.277344 L 605.785156 317.277344 L 605.785156 328.527344 C 605.785156 339.523438 605.847656 339.835938 607.238281 341.164062 C 608.945312 342.808594 610.652344 342.933594 612.421875 341.542969 C 613.621094 340.660156 613.683594 339.773438 613.875 313.992188 C 614.0625 284.167969 614.0625 284.421875 609.894531 284.421875 C 606.164062 284.421875 605.785156 285.621094 605.785156 298.449219 L 605.785156 309.695312 L 574.824219 309.695312 L 574.824219 298.765625 C 574.824219 286.125 574.445312 284.863281 570.96875 284.546875 C 569.453125 284.421875 568.316406 284.738281 567.621094 285.367188 Z M 567.621094 285.367188 " fill-opacity="1" fill-rule="nonzero"/></svg>